<?xml version="1.0" encoding="UTF-8"?>
<!-- Generator: visioncortex VTracer -->
<svg id="svg" version="1.1" xmlns="http://www.w3.org/2000/svg" style="display: block;" viewBox="0 0 11 11"><path d="M0,0 L11,0 L11,11 L0,11 Z " transform="translate(0,0)" style="fill: #303244;"/><path d="M0,0 L1,0 L1,1 L2,1 L2,2 L3,2 L3,4 L2,4 L2,5 L3,5 L3,6 L4,6 L4,5 L5,5 L5,4 L6,4 L6,3 L7,3 L7,4 L8,4 L8,3 L9,3 L9,2 L11,2 L11,7 L0,7 Z M1,3 L1,4 L2,4 L2,3 Z " transform="translate(0,4)" style="fill: #1E1E2E;"/><path d="M0,0 L1,0 L1,1 L2,1 L2,2 L1,2 L1,4 L2,4 L2,5 L3,5 L3,7 L2,7 L2,8 L1,8 L1,9 L0,9 L0,8 L-1,8 L-1,7 L0,7 L0,5 L-1,5 L-1,4 L-2,4 L-2,2 L-1,2 L-1,1 L0,1 Z M2,2 L3,2 L3,3 L2,3 Z M-2,6 L-1,6 L-1,7 L-2,7 Z " transform="translate(3,1)" style="fill: #88B4FA;"/><path d="M0,0 L1,0 L1,5 L-6,5 L-6,4 L-5,4 L-5,3 L-4,3 L-4,2 L-3,2 L-3,3 L-2,3 L-2,2 L-1,2 L-1,1 L0,1 Z " transform="translate(10,6)" style="fill: #10101A;"/><path d="M0,0 L7,0 L7,5 L6,5 L6,4 L5,4 L5,3 L4,3 L4,2 L3,2 L3,3 L2,3 L2,2 L1,2 L1,1 L0,1 Z " transform="translate(4,0)" style="fill: #10101A;"/><path d="M0,0 L1,0 L1,1 L2,1 L2,2 L3,2 L3,4 L2,4 L2,3 L1,3 L1,4 L0,4 Z " transform="translate(0,4)" style="fill: #1E1E2E;"/><path d="M0,0 L1,0 L1,1 L0,1 Z M2,0 L3,0 L3,1 L4,1 L4,2 L3,2 L3,3 L2,3 L2,2 L1,2 L1,1 L2,1 Z M4,0 L5,0 L5,1 L4,1 Z " transform="translate(1,7)" style="fill: #89B4FA;"/><path d="M0,0 L1,0 L1,1 L2,1 L2,2 L3,2 L3,3 L0,3 Z " transform="translate(0,8)" style="fill: #10111B;"/><path d="M0,0 L1,0 L1,1 L0,1 Z M1,1 L4,1 L4,3 L2,3 L2,2 L1,2 Z " transform="translate(4,3)" style="fill: #10101A;"/><path d="M0,0 L2,0 L2,1 L3,1 L3,2 L2,2 L2,3 L1,3 L1,2 L0,2 Z " transform="translate(3,5)" style="fill: #88B4FA;"/><path d="M0,0 L3,0 L3,1 L2,1 L2,2 L1,2 L1,3 L0,3 Z " transform="translate(0,0)" style="fill: #10101A;"/><path d="M0,0 L1,0 L1,1 L0,1 Z M1,1 L2,1 L2,2 L1,2 Z M2,2 L3,2 L3,3 L2,3 Z M1,3 L2,3 L2,4 L1,4 Z M0,4 L1,4 L1,5 L0,5 Z " transform="translate(7,3)" style="fill: #89B4FA;"/><path d="M0,0 L1,0 L1,1 L0,1 Z M-1,1 L0,1 L0,4 L-1,4 L-1,3 L-2,3 L-2,2 L-1,2 Z " transform="translate(3,1)" style="fill: #88B4FA;"/><path d="M0,0 L1,0 L1,1 L0,1 Z M-1,1 L0,1 L0,2 L-1,2 Z M-2,2 L-1,2 L-1,3 L-2,3 Z " transform="translate(6,8)" style="fill: #10111A;"/><path d="M0,0 L1,0 L1,1 L0,1 Z M-1,1 L0,1 L0,2 L-1,2 Z M1,1 L2,1 L2,2 L1,2 Z " transform="translate(1,6)" style="fill: #303244;"/><path d="M0,0 L1,0 L1,2 L0,2 Z " transform="translate(4,6)" style="fill: #313244;"/><path d="M0,0 L1,0 L1,2 L0,2 Z " transform="translate(0,5)" style="fill: #11101B;"/><path d="M0,0 L1,0 L1,2 L0,2 Z " transform="translate(2,3)" style="fill: #313244;"/><path d="M0,0 L1,0 L1,1 L0,1 Z M1,1 L2,1 L2,2 L1,2 Z " transform="translate(4,3)" style="fill: #1E1E2E;"/><path d="M0,0 L1,0 L1,1 L0,1 Z " transform="translate(0,8)" style="fill: #11111B;"/><path d="M0,0 L1,0 L1,1 L0,1 Z " transform="translate(4,6)" style="fill: #1E1F2F;"/><path d="M0,0 L1,0 L1,1 L0,1 Z " transform="translate(0,5)" style="fill: #11111B;"/><path d="M0,0 L1,0 L1,1 L0,1 Z " transform="translate(7,4)" style="fill: #1E1E2E;"/><path d="M0,0 L1,0 L1,1 L0,1 Z " transform="translate(6,4)" style="fill: #10111B;"/><path d="M0,0 L1,0 L1,1 L0,1 Z " transform="translate(2,3)" style="fill: #1F1E2F;"/><path d="M0,0 L1,0 L1,1 L0,1 Z " transform="translate(4,0)" style="fill: #11101A;"/><path d="M0,0 L1,0 L1,1 L0,1 Z " transform="translate(0,0)" style="fill: #11111A;"/></svg>